# xmcd
#
# Track frame offsets:
#	182
#	15217
#	35537
#	56585
#	71305
#	87965
#	102260
#	111955
#	142247
#	157290
#	183872
#	197607
#	221662
#	239300
#	257250
#	283012
#
# Disc length: 4051 seconds
#
# Revision: 0
# Processed by: cddbd v1.5.2PL0 Copyright (c) Steve Scherf et al.
# Submitted via: EZCDAudioConverter 5.5.0.1
#
DISCID=df0fd110
DTITLE=Various Artist - How I Stopped Worrying And Learned To Love The Blues
DYEAR=1996
DGENRE=Blues
TTITLE0=Lightnin' Hopkins - Walking All Night Long
TTITLE1=Mississippi John Hurt - Monday Morning Blues
TTITLE2=Hubert Sumlin - How Can You Leave Me, Little Girl?
TTITLE3=R. L. Burnside - Crosscut Saw
TTITLE4=Bukka White - Chi Chi Boogie
TTITLE5=John Hammond - Lost Lover Blues
TTITLE6=Skip James - Crow Jane
TTITLE7=Satan and Adam - Mother Mojo
TTITLE8=Snooks Eaglin - Baby Please
TTITLE9=Junior Kimbrough - All Night Long
TTITLE10=Don Hines - Stormy Monday
TTITLE11=Earl Thomas - I Sing The Blues
TTITLE12=Michael Bloomfield - Jockey Blues/Old Folks Boogie
TTITLE13=CeDell Davis - I Don't Know Why
TTITLE14=John "So Blue" Weston - Coloration
TTITLE15=Floyd Miles - All The Love I Can
EXTD=
EXTT0=
EXTT1=
EXTT2=
EXTT3=
EXTT4=
EXTT5=
EXTT6=
EXTT7=
EXTT8=
EXTT9=
EXTT10=
EXTT11=
EXTT12=
EXTT13=
EXTT14=
EXTT15=
PLAYORDER=
